<svg xmlns="http://www.w3.org/2000/svg" width="220" height="24" fill="none"><g clip-path="url(#a)" clip-rule="evenodd"><path fill="#FBAD39" fill-rule="evenodd" d="M9.167 4.658a.9.9 0 0 1 1.716 0l1.55 4.767h5a.908.908 0 0 1 .534 1.667l-4.059 2.941 1.55 4.775a.9.9 0 0 1-1.391 1.009L10 16.842l-4.058 2.95a.9.9 0 0 1-1.392-1.009l1.55-4.775-4.058-2.941A.908.908 0 0 1 2.575 9.4h5l1.592-4.742ZM31.167 4.658a.9.9 0 0 1 1.716 0l1.55 4.767h5a.908.908 0 0 1 .534 1.667l-4.059 2.941 1.55 4.775a.9.9 0 0 1-1.391 1.009L32 16.842l-4.058 2.95a.9.9 0 0 1-1.392-1.009l1.55-4.775-4.058-2.941a.909.909 0 0 1 .533-1.667h5l1.592-4.742ZM53.167 4.658a.9.9 0 0 1 1.716 0l1.55 4.767h5a.908.908 0 0 1 .534 1.667l-4.059 2.941 1.55 4.775a.9.9 0 0 1-1.391 1.009L54 16.842l-4.058 2.95a.9.9 0 0 1-1.392-1.009l1.55-4.775-4.058-2.941a.909.909 0 0 1 .533-1.667h5l1.592-4.742ZM75.167 4.658a.9.9 0 0 1 1.716 0l1.55 4.767h5a.908.908 0 0 1 .534 1.667l-4.059 2.941 1.55 4.775a.9.9 0 0 1-1.391 1.009L76 16.842l-4.058 2.95a.9.9 0 0 1-1.392-1.009l1.55-4.775-4.058-2.941a.909.909 0 0 1 .533-1.667h5l1.592-4.742Z"/><path stroke="#90A3BF" stroke-linecap="round" stroke-linejoin="round" stroke-width="1.5" d="M97.167 4.658a.9.9 0 0 1 1.716 0l1.55 4.767h5a.906.906 0 0 1 .891 1.21.91.91 0 0 1-.357.457l-4.059 2.941 1.55 4.775a.898.898 0 0 1-1.391 1.009L98 16.842l-4.058 2.95a.9.9 0 0 1-1.392-1.009l1.55-4.775-4.058-2.941a.909.909 0 0 1 .533-1.667h5l1.592-4.742Z"/></g><path fill="#596780" d="M121.726 18v-2.408h-5.124v-1.134l5.096-6.888h1.316v6.888h1.358v1.134h-1.358V18h-1.288Zm-4.088-3.052-.196-.49h4.284v-5.74l.406.112-4.494 6.118ZM130.934 18v-2.408h-5.124v-1.134l5.096-6.888h1.316v6.888h1.358v1.134h-1.358V18h-1.288Zm-4.088-3.052-.196-.49h4.284v-5.74l.406.112-4.494 6.118Zm12.651 3.22c-.83 0-1.558-.224-2.184-.672-.616-.457-1.096-1.087-1.442-1.89-.345-.812-.518-1.755-.518-2.828s.173-2.011.518-2.814c.346-.812.826-1.442 1.442-1.89.616-.448 1.34-.672 2.17-.672.831 0 1.554.224 2.17.672.616.448 1.097 1.078 1.442 1.89.355.803.532 1.74.532 2.814 0 1.073-.172 2.016-.518 2.828-.345.812-.83 1.442-1.456 1.89-.616.448-1.334.672-2.156.672Zm0-1.274c.56 0 1.046-.168 1.456-.504.411-.345.728-.826.952-1.442.234-.616.35-1.34.35-2.17 0-.83-.116-1.554-.35-2.17-.224-.616-.546-1.092-.966-1.428a2.227 2.227 0 0 0-1.456-.504c-.56 0-1.045.168-1.456.504-.41.336-.732.812-.966 1.428-.224.616-.336 1.34-.336 2.17 0 .821.112 1.54.336 2.156.234.616.556 1.097.966 1.442.42.345.91.518 1.47.518ZM148.592 18v-2.898h-2.898v-1.218h2.898V11h1.218v2.884h2.884v1.218h-2.884V18h-1.218Zm9.113 0V7.57h3.682c.69 0 1.297.13 1.82.392.522.261.928.635 1.218 1.12.298.485.448 1.055.448 1.708 0 .737-.187 1.363-.56 1.876a3.095 3.095 0 0 1-1.512 1.106L165.223 18h-1.596l-2.548-4.522.91.532h-2.912V18h-1.372Zm1.372-5.25h2.352c.41 0 .77-.08 1.078-.238.308-.159.546-.387.714-.686.177-.299.266-.644.266-1.036 0-.401-.089-.747-.266-1.036a1.688 1.688 0 0 0-.714-.686 2.325 2.325 0 0 0-1.078-.238h-2.352v3.92Zm10.88 5.418c-.728 0-1.377-.173-1.946-.518a3.7 3.7 0 0 1-1.344-1.414c-.327-.607-.49-1.283-.49-2.03 0-.756.159-1.428.476-2.016a3.687 3.687 0 0 1 1.316-1.386 3.502 3.502 0 0 1 1.876-.518c.56 0 1.055.103 1.484.308.439.196.807.467 1.106.812.308.336.541.723.7 1.162.168.43.252.877.252 1.344 0 .103-.009.22-.028.35a3.754 3.754 0 0 1-.042.35h-6.188v-1.12h5.432l-.616.504c.084-.485.037-.92-.14-1.302a2.112 2.112 0 0 0-1.96-1.246c-.439 0-.84.112-1.204.336a2.271 2.271 0 0 0-.854.966c-.196.41-.275.9-.238 1.47-.037.55.047 1.036.252 1.456.215.41.513.733.896.966.392.224.817.336 1.274.336.504 0 .929-.117 1.274-.35.345-.233.625-.532.84-.896l1.092.56a2.79 2.79 0 0 1-.7.952c-.308.28-.677.504-1.106.672-.42.168-.891.252-1.414.252Zm7.371-.168-2.954-7.546h1.456l2.366 6.384h-.504l2.38-6.384h1.456L178.56 18h-1.232Zm5.645 0v-7.546h1.302V18h-1.302Zm0-8.75V7.57h1.302v1.68h-1.302Zm7.074 8.918c-.728 0-1.377-.173-1.946-.518a3.7 3.7 0 0 1-1.344-1.414c-.327-.607-.49-1.283-.49-2.03 0-.756.159-1.428.476-2.016a3.687 3.687 0 0 1 1.316-1.386 3.502 3.502 0 0 1 1.876-.518c.56 0 1.055.103 1.484.308.439.196.807.467 1.106.812.308.336.541.723.7 1.162.168.43.252.877.252 1.344 0 .103-.009.22-.028.35a3.754 3.754 0 0 1-.042.35h-6.188v-1.12h5.432l-.616.504c.084-.485.037-.92-.14-1.302a2.112 2.112 0 0 0-1.96-1.246c-.439 0-.84.112-1.204.336a2.271 2.271 0 0 0-.854.966c-.196.41-.275.9-.238 1.47-.037.55.047 1.036.252 1.456.215.41.513.733.896.966.392.224.817.336 1.274.336.504 0 .929-.117 1.274-.35.345-.233.625-.532.84-.896l1.092.56a2.79 2.79 0 0 1-.7.952c-.308.28-.677.504-1.106.672-.42.168-.891.252-1.414.252ZM197.19 18l-2.59-7.546h1.442l2.058 6.314-.504-.014 2.016-6.3h1.232l2.016 6.3-.504.014 2.072-6.314h1.428L203.266 18h-1.246l-1.988-6.3h.392l-1.988 6.3h-1.246Zm13.446.168c-.728 0-1.376-.173-1.946-.518a3.7 3.7 0 0 1-1.344-1.414 4.22 4.22 0 0 1-.49-2.03c0-.756.159-1.428.476-2.016a3.695 3.695 0 0 1 1.316-1.386 3.504 3.504 0 0 1 1.876-.518c.56 0 1.055.103 1.484.308.439.196.808.467 1.106.812.308.336.542.723.7 1.162.168.43.252.877.252 1.344 0 .103-.009.22-.028.35a3.754 3.754 0 0 1-.042.35h-6.188v-1.12h5.432l-.616.504c.084-.485.038-.92-.14-1.302a2.112 2.112 0 0 0-1.96-1.246c-.438 0-.84.112-1.204.336a2.278 2.278 0 0 0-.854.966c-.196.41-.275.9-.238 1.47-.037.55.047 1.036.252 1.456.215.41.514.733.896.966.392.224.817.336 1.274.336.504 0 .929-.117 1.274-.35.346-.233.626-.532.84-.896l1.092.56a2.777 2.777 0 0 1-.7.952c-.308.28-.676.504-1.106.672-.42.168-.891.252-1.414.252Zm5.408-.168v-7.546h1.274v1.386l-.14-.196c.177-.43.448-.747.812-.952.364-.215.807-.322 1.33-.322h.462v1.232h-.658c-.532 0-.962.168-1.288.504-.327.327-.49.793-.49 1.4V18h-1.302Z"/><defs><clipPath id="a"><path fill="#fff" d="M0 2h108v20H0z"/></clipPath></defs></svg>